<?xml version="1.0" encoding="UTF-8" standalone="no"?>
<!-- Generator: Adobe Illustrator 24.3.0, SVG Export Plug-In . SVG Version: 6.00 Build 0)  -->

<svg
   version="1.1"
   x="0px"
   y="0px"
   viewBox="0 0 121 236"
   enable-background="new 0 0 121 236"
   xml:space="preserve"
   id="svg115"
   width="121"
   height="236"
   xmlns="http://www.w3.org/2000/svg"
   xmlns:svg="http://www.w3.org/2000/svg"><defs
   id="defs115" />



<path
   style="fill:#666666;fill-opacity:1;stroke-width:2.01194"
   d="m 57.522709,63.939152 -0.0067,-18.029501 2.364024,-0.118373 c 1.312774,-0.06574 4.063916,-0.430739 6.1867,-0.820813 l 3.822677,-0.702439 0.767205,0.527589 c 0.630499,0.433579 0.745613,0.613617 0.646029,1.010392 -0.893451,3.559792 -1.483165,7.664758 -1.72245,11.989861 -0.383858,6.938288 -1.063682,10.968808 -2.238677,13.272592 -0.235777,0.462285 -1.570087,2.017499 -2.965132,3.456032 -3.557647,3.668549 -5.459345,5.703223 -6.205474,6.639386 l -0.64141,0.804774 z"
   id="path116" /><path
   style="fill:#666666;fill-opacity:1;stroke-width:2.01194"
   d="M 55.365073,80.996495 C 54.904265,80.406479 52.801755,78.143016 50.692828,75.966575 46.611834,71.754933 45.987776,70.873449 45.353115,68.424212 44.80126,66.294536 44.45269,63.411984 44.141151,58.4017 43.854853,53.797365 43.229347,49.150835 42.54094,46.514637 c -0.164605,-0.630342 -0.280338,-1.15702 -0.257185,-1.170396 0.02315,-0.01338 0.359005,-0.25971 0.746337,-0.547409 l 0.70424,-0.52309 3.822614,0.695813 c 2.162256,0.393586 4.893126,0.749584 6.287235,0.819608 l 2.464621,0.123794 v 18.078146 c 0,9.942981 -0.02383,18.078146 -0.05295,18.078146 -0.02912,0 -0.429973,-0.482739 -0.89078,-1.072754 z"
   id="path117" /><path
   style="fill:#666666;fill-opacity:1;stroke-width:2.01194"
   d="m 37.903633,90.720571 c 0.0891,-2.304191 0.06316,-3.707721 -0.07506,-4.06155 -0.116167,-0.297364 -0.352977,-1.791226 -0.526245,-3.319693 -0.225278,-1.987277 -0.456006,-3.098475 -0.809849,-3.900274 -0.642611,-1.456146 -1.423205,-4.742181 -1.78876,-7.530078 -0.159605,-1.21722 -0.338739,-2.348934 -0.398078,-2.514919 -0.05934,-0.165984 -0.150235,-3.871961 -0.201993,-8.235503 l -0.09411,-7.933713 0.871622,-1.119995 c 0.960651,-1.234393 3.394383,-3.647451 5.164495,-5.120624 1.312978,-1.092724 1.145565,-1.272399 1.759241,1.888096 0.708052,3.646546 0.82227,4.604697 1.127235,9.456096 0.479685,7.63086 1.058383,10.898118 2.364224,13.348128 0.4459,0.836592 1.837065,2.426261 4.792324,5.476131 3.842122,3.965126 6.191648,6.838769 5.85498,7.161071 -0.07581,0.07258 -2.48772,1.189861 -5.359791,2.482847 -8.28331,3.729088 -9.819636,4.562582 -11.643767,6.317036 l -1.17262,1.12783 z"
   id="path118" /><path
   style="fill:#666666;fill-opacity:1;stroke-width:2.01194"
   d="m 75.335242,93.630477 c -0.531492,-0.81116 -2.534145,-2.174649 -5.16145,-3.514129 -2.328878,-1.187333 -11.37409,-5.351856 -12.104547,-5.573076 -0.481434,-0.145803 -0.443354,-0.432925 0.181839,-1.371054 0.911459,-1.367681 2.257824,-2.881359 5.840601,-6.566413 1.901472,-1.955752 3.691046,-3.926316 3.976832,-4.379029 1.497963,-2.372927 2.145597,-5.670292 2.630983,-13.395378 0.309974,-4.93334 0.575942,-7.076608 1.329086,-10.710243 l 0.426753,-2.058921 0.825341,0.650566 c 1.88501,1.48584 4.067064,3.591143 5.22873,5.044817 l 1.238437,1.549743 -0.145065,3.566793 c -0.07978,1.961736 -0.141594,5.558609 -0.137355,7.99305 0.0042,2.434442 -0.08573,4.878943 -0.199946,5.432225 -0.114209,0.553282 -0.354219,1.945837 -0.533354,3.094568 -0.401135,2.572333 -0.972432,4.803399 -1.603203,6.260931 -0.320434,0.74043 -0.552912,1.838832 -0.702617,3.319693 -0.123053,1.217221 -0.321943,2.620546 -0.441979,3.1185 -0.125557,0.52086 -0.19811,2.422056 -0.170833,4.476556 0.02608,1.964151 0.0044,3.571185 -0.04821,3.571185 -0.05259,0 -0.246112,-0.229673 -0.430041,-0.510384 z"
   id="path119" /><path
   style="fill:#666666;fill-opacity:1;stroke-width:2.01194"
   d="m 76.717469,130.44847 c -3.283617,-2.73776 -6.523452,-4.44954 -11.810023,-6.23989 -4.020468,-1.36156 -4.920186,-1.89 -5.961797,-3.50158 -1.375523,-2.1282 -1.471865,-2.83562 -1.384871,-10.16887 0.07187,-6.05883 0.103601,-6.52118 0.53842,-7.84655 1.323465,-4.034036 3.668717,-6.430674 7.079548,-7.234655 1.642739,-0.387217 4.904457,-0.389903 6.719044,-0.0055 1.691617,0.358323 3.236546,1.083112 3.99404,1.873764 0.696508,0.726995 0.838987,1.260165 2.455609,9.189101 1.780398,8.7322 1.956265,11.18472 1.284035,17.90622 -0.226777,2.26749 -0.961896,6.70536 -1.176107,7.10007 -0.09959,0.18352 -0.608451,-0.13039 -1.737898,-1.07208 z"
   id="path120" /><path
   style="fill:#666666;fill-opacity:1;stroke-width:2.01194"
   d="m 57.515963,93.058491 c 0,-5.848874 0.053,-7.389329 0.251492,-7.308893 1.904079,0.771621 9.241578,4.176517 11.702153,5.430273 2.417964,1.232043 3.47686,1.896466 4.325661,2.714214 0.697643,0.67212 0.971314,1.043864 0.721546,0.980119 -0.221313,-0.05648 -0.900341,-0.250314 -1.508951,-0.430737 -0.654457,-0.194014 -2.216284,-0.37266 -3.822677,-0.437247 -3.034541,-0.122009 -4.599056,0.131087 -6.567931,1.062514 -1.464924,0.69302 -3.408838,2.537375 -4.346818,4.12419 l -0.754475,1.276376 z"
   id="path121" /><path
   style="fill:#666666;fill-opacity:1;stroke-width:2.01194"
   d="m 55.527176,99.458424 c -1.392287,-2.685784 -3.864575,-4.53381 -6.997914,-5.230912 -2.466435,-0.54873 -6.937882,-0.240566 -9.19442,0.633663 -0.333981,0.129391 -0.349332,0.09659 -0.138847,-0.296706 0.386216,-0.721652 2.467694,-2.124235 5.198217,-3.502765 3.31017,-1.671171 11.700113,-5.451319 11.824031,-5.327401 0.05253,0.05254 0.07177,3.457545 0.04274,7.566688 l -0.05278,7.471169 z"
   id="path122" /><path
   style="fill:#666666;fill-opacity:1;stroke-width:2.01194"
   d="m 34.913869,130.2932 c -0.87626,-4.51411 -1.02901,-6.21453 -1.033604,-11.50614 l -0.0045,-5.23103 0.864759,-4.32566 c 1.268648,-6.34598 2.260307,-10.688196 2.585465,-11.321096 0.415563,-0.808868 1.753493,-1.699541 3.272631,-2.178623 1.862315,-0.587309 5.85217,-0.745626 7.714577,-0.306114 3.790816,0.894601 6.227239,3.491887 7.429032,7.919533 0.366098,1.34878 0.436184,2.28885 0.516269,6.92489 0.103361,5.98359 -0.04633,7.4678 -0.944803,9.36761 -1.177664,2.49017 -2.213747,3.19155 -7.052593,4.77424 -4.654542,1.52242 -8.447845,3.58858 -11.653178,6.34732 l -1.374179,1.18272 z"
   id="path123" /><path
   style="fill:#666666;fill-opacity:1;stroke-width:2.01194"
   d="m 103.50023,141.23882 c -0.0643,-0.10399 -0.35135,-2.16519 -0.63795,-4.58043 -0.2866,-2.41525 -0.61351,-4.50453 -0.72646,-4.64285 -0.11295,-0.13832 -0.36426,-0.2515 -0.55848,-0.2515 -0.77611,0 -0.90157,0.52863 -1.00597,4.23859 -0.0553,1.96625 -0.1685,3.64277 -0.25149,3.72561 -0.361298,0.36062 -0.453988,-0.36303 -0.474668,-3.70565 -0.0199,-3.21493 -0.0711,-3.71084 -0.53627,-5.19285 -0.6918,-2.20399 -1.02008,-4.48832 -0.82965,-5.77306 0.0847,-0.57122 0.15998,-1.75064 0.16735,-2.62094 l 0.0134,-1.58234 1.00596,-0.40352 c 1.594668,-0.63965 2.933898,-0.95367 4.078128,-0.95625 1.04704,-0.002 1.08735,0.0208 3.24125,1.85865 1.19956,1.02357 2.75954,2.19549 3.46663,2.60426 2.26696,1.31056 3.39814,2.04736 3.39814,2.21341 0,0.495 -2.32757,-0.11224 -3.49867,-0.91276 -0.92726,-0.63383 -1.7355,-0.68486 -2.228,-0.14066 -0.6147,0.67924 -0.432,1.81254 0.68425,4.24456 0.5602,1.22051 1.01855,2.26473 1.01855,2.32049 0,0.0557 0.73794,1.59242 1.63987,3.41482 0.90193,1.82239 1.57477,3.37855 1.49519,3.45813 -0.22734,0.22734 -0.77706,-0.62158 -2.56103,-3.95492 -0.91239,-1.7048 -1.87553,-3.35711 -2.14032,-3.67178 -0.77735,-0.92383 -1.854,-0.67491 -1.854,0.42863 0,0.28485 0.45549,2.09868 1.01221,4.03075 1.02629,3.5617 1.29429,5.21769 0.86885,5.36861 -0.23468,0.0833 -1.43686,-3.31574 -2.29076,-6.47686 -0.71895,-2.66153 -1.13971,-3.29241 -2.01133,-3.01577 -0.73426,0.23304 -0.84245,1.06397 -0.51314,3.94108 0.50548,4.41645 0.59562,5.94529 0.35912,6.09145 -0.11762,0.0727 -0.26644,0.0471 -0.33071,-0.0569 z"
   id="path124" /><path
   style="fill:#666666;fill-opacity:1;stroke-width:2.01194"
   d="M 96.997592,118.19834 C 95.174928,115.28501 86.895833,99.087964 85.957159,96.599076 85.168971,94.5092 84.42694,88.921099 84.164886,83.101801 l -0.139235,-3.091915 0.57721,0.401113 c 0.317466,0.220613 1.21097,0.812004 1.985565,1.314202 0.774595,0.502199 1.601009,1.124568 1.836474,1.383044 0.333397,0.365977 0.724664,1.861206 1.768423,6.75803 0.785136,3.683491 1.676642,7.266954 2.152304,8.651319 1.409724,4.102856 3.771735,9.866766 5.750405,14.032466 1.05122,2.21313 2.120878,4.48397 2.377018,5.0463 l 0.46571,1.02242 -1.462448,0.60199 -1.46245,0.60198 z"
   id="path125" /><path
   style="fill:#666666;fill-opacity:1;stroke-width:2.01194"
   d="m 101.98054,117.98556 c -0.0851,-0.22311 -1.03405,-2.26167 -2.108878,-4.53013 -2.29208,-4.83752 -3.62468,-7.95834 -5.285465,-12.37803 -1.73481,-4.616699 -1.758842,-4.702565 -3.250448,-11.613857 l -1.357028,-6.287729 0.492378,-1.106565 c 0.270808,-0.60861 0.652953,-1.55925 0.849211,-2.112532 l 0.356833,-1.005967 1.805983,3.72208 c 2.060748,4.247141 3.654816,8.087678 4.262736,10.270095 0.22976,0.824849 0.77895,3.989496 1.22041,7.032549 1.322088,9.113386 1.516238,9.906866 3.667648,14.988916 0.65582,1.54919 1.23561,2.92028 1.28842,3.04688 0.0618,0.14825 -0.23911,0.25682 -0.84556,0.30505 -0.79749,0.0634 -0.96525,0.0128 -1.09624,-0.33076 z"
   id="path126" /><path
   style="fill:#666666;fill-opacity:1;stroke-width:2.01194"
   d="m 86.706297,80.323054 c -3.037592,-2.017717 -3.916012,-2.935958 -4.454636,-4.656573 -1.40397,-4.48493 -1.777074,-8.593418 -1.503731,-16.558505 l 0.149313,-4.350874 1.417857,1.534164 c 1.378819,1.491924 3.821012,3.508102 6.732437,5.558034 1.418305,0.998628 1.430244,1.014776 1.636382,2.213129 0.491692,2.858378 0.704025,5.450591 0.708645,8.651322 0.0044,3.057928 -0.04389,3.558839 -0.455969,4.728047 -0.895005,2.539457 -1.662917,4.426141 -1.797575,4.416464 -0.07495,-0.0054 -1.169674,-0.696229 -2.432723,-1.535208 z"
   id="path127" /><path
   style="fill:#666666;fill-opacity:1;stroke-width:2.01194"
   d="m 87.553349,59.224296 c -3.121789,-2.356561 -4.949014,-4.191987 -7.501603,-7.535268 -1.410256,-1.847099 -4.548378,-4.87416 -6.729619,-6.491451 -0.892112,-0.661461 -1.604205,-1.250161 -1.582431,-1.308224 0.02177,-0.05806 1.198757,-0.52969 2.615516,-1.048062 1.416759,-0.518371 2.865675,-1.093656 3.219813,-1.27841 0.834696,-0.435461 1.459428,-0.423457 3.398098,0.06529 2.710359,0.6833 4.769636,1.833426 6.66706,3.723619 1.853729,1.846663 2.733038,3.410301 3.507164,6.236636 0.601343,2.195506 0.647535,6.813679 0.08704,8.70162 -0.205326,0.691602 -0.429292,1.254288 -0.497702,1.250413 -0.06841,-0.0039 -1.50091,-1.046149 -3.183331,-2.316168 z"
   id="path128" /><path
   style="fill:#666666;fill-opacity:1;stroke-width:2.01194"
   d="m 57.515963,36.92321 v -7.827624 l 1.659846,0.124313 c 0.912916,0.06837 2.225704,0.227299 2.917306,0.353171 l 1.25746,0.228859 0.0048,0.732978 c 0.0063,0.963192 0.760101,2.764958 1.682567,4.021608 0.907782,1.236646 2.155293,2.085707 3.91533,2.664788 1.717776,0.565176 5.418003,1.992453 6.971923,2.689257 l 1.207161,0.541312 -1.207161,0.497874 c -3.351312,1.382197 -5.944922,2.094657 -10.462063,2.87391 -2.545098,0.439055 -5.374382,0.827284 -6.287298,0.862731 l -1.659846,0.06445 z"
   id="path129" /><path
   style="fill:#666666;fill-opacity:1;stroke-width:2.01194"
   d="M 53.894479,44.643602 C 51.001336,44.451021 44.078685,43.17915 41.8384,42.428585 c -2.709311,-0.907702 -5.045441,-1.821669 -5.044868,-1.973708 6.95e-4,-0.18435 3.165588,-1.506632 6.538287,-2.731673 3.144023,-1.141981 4.001648,-1.606909 4.944014,-2.680205 0.877764,-0.999718 2.044556,-3.514864 2.069358,-4.460722 l 0.02021,-0.770816 1.273726,-0.234694 c 0.70055,-0.129081 1.992546,-0.290124 2.871103,-0.357874 l 1.597377,-0.12318 v 7.876367 c 0,4.332002 -0.02263,7.861917 -0.0503,7.844255 -0.02767,-0.01766 -1.000938,-0.09539 -2.162831,-0.172733 z"
   id="path130" /><path
   style="fill:#666666;fill-opacity:1;stroke-width:2.01194"
   d="m 49.476775,28.371886 c -1.580012,-1.391747 -3.291264,-4.347466 -4.172159,-7.206265 -0.506644,-1.64423 -0.54483,-2.021971 -0.54483,-5.389637 0,-3.367665 0.03819,-3.745407 0.54483,-5.389636 1.35774,-4.4063206 3.88526,-7.718348 7.107261,-9.3132574 6.698709,-3.3159001 14.036406,1.3208601 16.169254,10.2175064 0.300751,1.254506 0.400044,2.367795 0.400044,4.485387 0,3.089528 -0.355932,5.080992 -1.321015,7.391158 -0.610222,1.460721 -2.406144,4.240015 -3.235683,5.007407 l -0.570918,0.528149 -2.213129,-0.392052 c -1.835938,-0.325233 -2.79606,-0.373948 -5.633419,-0.285829 -1.881159,0.05842 -4.037497,0.233109 -4.791861,0.388193 -1.229816,0.252827 -1.409482,0.248578 -1.738375,-0.04112 z"
   id="path131" /><path
   style="fill:#666666;fill-opacity:1;stroke-width:2.01194"
   d="m 22.725175,61.085797 c -0.533984,-1.404483 -0.687537,-2.482162 -0.69389,-4.869915 -0.0055,-2.080494 0.08722,-2.985916 0.453451,-4.426258 1.420381,-5.5862 5.043393,-9.016681 10.89676,-10.317693 l 1.701389,-0.378163 1.005968,0.466303 c 0.553282,0.256467 2.153197,0.887401 3.555367,1.402076 l 2.549399,0.935772 -1.579089,1.129143 c -2.463811,1.761772 -5.116703,4.31494 -7.173566,6.903907 -3.253099,4.094665 -4.666182,5.420501 -9.472821,8.887941 l -1.055066,0.761109 z"
   id="path132" /><path
   style="fill:#666666;fill-opacity:1;stroke-width:2.01194"
   d="m 23.443777,79.309162 c -1.154191,-3.082742 -1.376453,-4.849551 -1.120754,-8.909137 0.173525,-2.754944 0.686096,-7.115136 0.871748,-7.415527 0.05588,-0.09041 1.349593,-1.061843 2.874927,-2.158741 1.648816,-1.185697 3.560885,-2.790955 4.715628,-3.958957 l 1.942294,-1.964598 0.144484,2.69764 c 0.220356,4.114233 -0.0044,12.218541 -0.385591,13.906747 -0.905834,4.011212 -1.358209,5.310544 -2.170012,6.232801 -0.673739,0.765408 -5.064948,3.910984 -5.702207,4.084691 -0.114247,0.03114 -0.64098,-1.100573 -1.170517,-2.514919 z"
   id="path133" /><path
   style="fill:#666666;fill-opacity:1;stroke-width:2.01194"
   d="m 14.063292,119.18237 c -0.605789,-0.25582 -1.128591,-0.54659 -1.161783,-0.64617 -0.03319,-0.0996 0.932093,-2.27061 2.145075,-4.82452 2.259522,-4.75738 4.746293,-10.75769 6.234832,-15.043966 0.508366,-1.463848 1.380307,-4.928952 2.214842,-8.801802 0.757018,-3.513114 1.494885,-6.530249 1.639703,-6.704745 0.267751,-0.32262 4.089122,-2.902659 4.299212,-2.902659 0.518203,0 -0.399589,11.09559 -1.214686,14.684883 -0.395571,1.741906 -1.583217,4.283613 -6.252728,13.381609 -4.252864,8.28621 -6.024642,11.37776 -6.501242,11.34392 -0.165985,-0.0118 -0.797436,-0.23074 -1.403225,-0.48655 z"
   id="path134" /><path
   style="fill:#666666;fill-opacity:1;stroke-width:2.01194"
   d="m 10.524313,118.30416 -0.8177371,-0.12068 1.5438281,-3.72208 c 1.86879,-4.50555 2.179489,-5.77969 3.329703,-13.65479 0.494108,-3.382978 1.03846,-6.691463 1.209671,-7.352188 0.642426,-2.479205 2.329285,-6.568164 4.809608,-11.658525 l 1.35861,-2.788271 0.867569,2.115903 0.86757,2.115904 -1.310261,6.104593 c -0.720644,3.357526 -1.674924,7.191037 -2.120623,8.518918 -1.166316,3.474816 -3.792086,9.932516 -5.603807,13.781746 -2.619297,5.56503 -3.233446,6.84185 -3.275774,6.81037 -0.02234,-0.0166 -0.408602,-0.0845 -0.858357,-0.1509 z"
   id="path135" /><path
   style="fill:#666666;fill-opacity:1;stroke-width:2.01194"
   d="m 9.7491799,141.09046 c -0.07554,-0.19686 0.05884,-2.19166 0.2986161,-4.43289 0.239781,-2.24123 0.379034,-4.3018 0.309451,-4.57903 -0.166415,-0.66306 -0.7932711,-1.00355 -1.3243121,-0.71935 -0.569306,0.30468 -0.766413,0.75724 -1.522939,3.49668 -0.58892,2.13253 -1.346175,4.49028 -1.801738,5.60979 -0.2575605,0.63294 -0.5026108,0.37043 -0.5026108,-0.53843 0,-0.48978 0.4581877,-2.48098 1.0181948,-4.42488 0.63436,-2.20199 0.994624,-3.8193 0.955669,-4.29021 -0.05668,-0.6852 -0.121882,-0.76161 -0.697517,-0.81749 -0.8185382,-0.0795 -1.1517806,0.3577 -3.1910611,4.1861 -1.7782153,3.3383 -2.34651677,4.21716 -2.47592217,3.82895 -0.048573,-0.14572 0.64069977,-1.76851 1.53171817,-3.6062 3.7663081,-7.76784 4.0351201,-8.55209 3.2658594,-9.52795 -0.5852287,-0.7424 -1.2036284,-0.70703 -2.5897445,0.14811 -1.2441112,0.76753 -3.17812647,1.20899 -3.01291497,0.68773 0.049255,-0.1554 0.8083906,-0.70826 1.68696757,-1.22856 2.4715,-1.46366 3.2705015,-2.03324 5.3247136,-3.79583 l 1.906117,-1.63551 1.5089521,0.0983 c 1.015048,0.0661 2.035781,0.30159 3.118499,0.71947 l 1.609548,0.62121 -0.0136,3.57576 c -0.01356,3.56485 -0.107373,4.2793 -0.901607,6.86635 -0.323585,1.05402 -0.393091,1.88466 -0.39563,4.72805 -0.0029,3.23718 -0.159188,4.46593 -0.466272,3.66568 -0.06763,-0.17624 -0.18508,-1.91188 -0.260999,-3.85698 -0.138337,-3.54427 -0.268723,-4.11095 -0.943866,-4.10217 -0.702331,0.009 -0.813957,0.40725 -1.352197,4.82277 -0.519615,4.26272 -0.771062,5.30922 -1.0813741,4.50056 z"
   id="path136" /><path
   style="fill:#666666;fill-opacity:1;stroke-width:2.01194"
   d="m 42.13546,174.37639 c -1.018327,-1.18799 -2.042129,-3.34931 -2.553934,-5.39154 -0.404423,-1.61375 -0.415605,-1.88593 -0.198366,-4.82865 0.126618,-1.71517 0.36855,-5.563 0.537628,-8.55072 0.458678,-8.10518 0.971896,-12.29927 2.006482,-16.39727 0.492997,-1.95277 2.222981,-7.15382 3.276801,-9.85142 l 0.586711,-1.50188 0.414186,1.80367 c 1.119156,4.87364 2.658271,13.87796 2.65927,15.55759 2.22e-4,0.37199 -0.319588,1.53069 -0.710688,2.57489 -0.602128,1.60764 -0.865385,2.92215 -1.718014,8.57857 -1.104149,7.32502 -1.394928,8.72349 -2.026231,9.74496 -0.359516,0.58171 -0.418375,0.97381 -0.395091,2.63197 0.02016,1.43583 -0.104696,2.52525 -0.47459,4.14097 -0.276072,1.2059 -0.538177,2.22877 -0.582457,2.27305 -0.04428,0.0443 -0.414047,-0.30861 -0.821707,-0.78419 z"
   id="path137" /><path
   style="fill:#666666;fill-opacity:1;stroke-width:2.01194"
   d="m 32.567966,170.84456 c 0,-2.54196 -0.0904,-4.67198 -0.215611,-5.08014 -0.118586,-0.38657 -0.264932,-1.87983 -0.325214,-3.31836 -0.09997,-2.38559 -0.06379,-2.78354 0.411496,-4.52686 0.795966,-2.91951 1.713559,-7.0282 1.938154,-8.67842 0.28462,-2.09126 0.761849,-8.51717 0.927552,-12.48954 l 0.140256,-3.36234 1.587545,-1.36571 c 2.367285,-2.03649 7.219284,-5.14062 7.537619,-4.82228 0.05666,0.0567 -0.482859,1.6724 -1.198938,3.59054 -3.233419,8.66124 -3.970737,12.61445 -4.665622,25.01522 -0.608842,10.86528 -0.765727,11.90251 -2.251913,14.88832 -0.757043,1.52093 -1.323824,2.33761 -2.548254,3.67178 -1.325689,1.44451 -1.33707,1.41453 -1.33707,-3.52221 z"
   id="path138" /><path
   style="fill:#666666;fill-opacity:1;stroke-width:2.01194"
   d="m 31.561998,154.5691 c 0,-0.55895 -0.235215,-3.85903 -0.5227,-7.33351 -0.684888,-8.27741 -0.579231,-10.88453 0.863459,-21.30616 0.607784,-4.39048 0.63637,-4.38798 1.152448,0.1006 0.17812,1.54919 0.528672,3.81262 0.779004,5.02984 0.505969,2.46022 0.491103,3.62507 -0.160478,12.57459 -0.360116,4.94624 -0.507553,6.04627 -1.240423,9.2549 -0.602489,2.6378 -0.87131,3.15604 -0.87131,1.67974 z"
   id="path139" /><path
   style="fill:#666666;fill-opacity:1;stroke-width:2.01194"
   d="m 49.807293,142.5279 c -0.06661,-0.33197 -0.222603,-1.32788 -0.34666,-2.21313 -0.331124,-2.36285 -1.50358,-8.50127 -2.192173,-11.47718 -0.329664,-1.42472 -0.580705,-2.60426 -0.55787,-2.6212 0.02284,-0.0169 1.217515,-0.42004 2.654843,-0.89576 1.437329,-0.47572 3.180167,-1.1604 3.872976,-1.52152 1.112965,-0.58011 1.259651,-0.61386 1.259651,-0.28976 0,0.20174 -0.401585,2.97905 -0.892411,6.17179 -0.802735,5.22166 -0.995303,6.10243 -1.91636,8.76499 -0.563173,1.628 -1.189763,3.34821 -1.392422,3.82268 l -0.368472,0.86267 z"
   id="path140" /><path
   style="fill:#666666;fill-opacity:1;stroke-width:2.01194"
   d="m 70.59102,174.71223 c -0.531746,-1.3986 -1.036924,-4.68767 -0.953201,-6.20602 0.07963,-1.44405 0.03739,-1.67666 -0.474292,-2.61235 -0.626427,-1.14551 -0.756881,-1.80498 -2.075029,-10.48958 -0.751165,-4.94903 -1.000162,-6.13998 -1.640521,-7.84654 l -0.754944,-2.01194 0.545166,-3.82268 c 0.476484,-3.34108 2.028072,-11.58643 2.495866,-13.26337 0.152713,-0.54744 0.217387,-0.4499 0.933782,1.40836 2.598871,6.7412 3.758659,11.19534 4.432861,17.02427 0.402388,3.4789 1.195001,16.38088 1.196537,19.47695 0.0012,2.355 -0.04078,2.62628 -0.659766,4.26616 -0.557492,1.47699 -2.423491,4.58636 -2.752367,4.58636 -0.05518,0 -0.187527,-0.22933 -0.294092,-0.50962 z"
   id="path141" /><path
   style="fill:#666666;fill-opacity:1;stroke-width:2.01194"
   d="m 63.162212,141.76285 c -1.930752,-5.2088 -2.185403,-6.2173 -3.135043,-12.41573 -0.511624,-3.33943 -0.888983,-6.11294 -0.838576,-6.16335 0.05041,-0.0504 0.506568,0.17148 1.013691,0.49309 0.507122,0.32161 2.245805,1.01851 3.86374,1.54866 2.666589,0.87378 2.933277,1.00351 2.851642,1.3872 -0.04953,0.2328 -0.422168,1.90193 -0.828082,3.70917 -0.755261,3.36263 -2.135429,11.11491 -2.135429,11.99452 0,0.92321 -0.330065,0.6925 -0.791943,-0.55356 z"
   id="path142" /><path
   style="fill:#666666;fill-opacity:1;stroke-width:2.01194"
   d="m 81.310958,153.09056 c -0.824563,-3.44546 -1.156442,-6.3102 -1.586952,-13.69843 l -0.344837,-5.91794 0.53472,-2.76674 c 0.294097,-1.52171 0.689356,-4.18364 0.878355,-5.9154 0.188998,-1.73176 0.366238,-3.06703 0.393865,-2.96727 0.173694,0.62719 1.329663,9.57952 1.579844,12.23501 0.384856,4.08495 0.38364,7.15265 -0.0046,11.6872 -0.170549,1.99182 -0.420397,5.07008 -0.555217,6.84058 l -0.245128,3.2191 z"
   id="path143" /><path
   style="fill:#666666;fill-opacity:1;stroke-width:2.01194"
   d="m 80.114344,174.66797 c -1.72794,-1.54957 -3.059478,-3.7744 -3.943136,-6.58849 -0.54096,-1.72274 -0.674219,-3.12719 -1.259935,-13.27878 -0.652159,-11.30316 -1.521676,-15.83773 -4.61259,-24.05486 -0.720078,-1.91432 -1.274353,-3.51545 -1.231723,-3.55808 0.312283,-0.31229 5.312145,2.87727 7.612685,4.85635 1.485927,1.2783 1.559297,1.38131 1.560249,2.1905 0.002,1.70777 0.612251,10.78694 0.912708,13.57927 0.212322,1.97323 0.657805,4.27073 1.423904,7.34356 1.035584,4.15373 1.113146,4.62937 1.090122,6.68504 -0.01363,1.21722 -0.164733,2.89072 -0.335776,3.71889 -0.244511,1.18388 -0.283313,2.21606 -0.181521,4.82864 0.07121,1.82759 0.05661,3.7074 -0.03243,4.17736 l -0.161895,0.85449 z"
   id="path144" /><path
   style="fill:#666666;fill-opacity:1;stroke-width:2.01194"
   d="m 82.009259,195.83953 c -1.314364,-1.03183 -2.192934,-2.13878 -2.897988,-3.6513 -0.382472,-0.8205 -0.587665,-1.92628 -0.970692,-5.23103 -0.267133,-2.30483 -0.767306,-6.48251 -1.111496,-9.28373 -0.344189,-2.80122 -0.593057,-5.19135 -0.55304,-5.3114 0.04002,-0.12006 0.373398,0.25023 0.740847,0.82285 0.367449,0.57262 1.383983,1.7062 2.258963,2.51908 l 1.590874,1.47795 0.291732,1.68576 c 0.432541,2.49942 1.2468,9.33486 1.495021,12.55021 0.119595,1.54919 0.264473,3.38257 0.321952,4.07417 0.05748,0.69161 0.07935,1.25741 0.04861,1.25734 -0.03075,-7e-5 -0.577396,-0.40953 -1.214779,-0.9099 z"
   id="path145" /><path
   style="fill:#666666;fill-opacity:1;stroke-width:2.01194"
   d="m 73.337796,201.17581 c -0.18106,-0.52822 -0.734343,-9.45176 -0.932108,-15.03334 -0.231899,-6.54496 -0.31833,-7.4667 -0.801303,-8.54546 l -0.377426,-0.843 1.023268,-1.21877 c 0.562797,-0.67032 1.401005,-2.01031 1.862685,-2.97776 l 0.839419,-1.759 1.050207,8.49898 c 0.577614,4.67444 1.10289,9.14357 1.16728,9.9314 0.213484,2.61205 -0.680306,6.80574 -2.053102,9.63322 -0.838353,1.72672 -1.628062,2.75384 -1.77892,2.31373 z"
   id="path146" /><path
   style="fill:#666666;fill-opacity:1;stroke-width:2.01194"
   d="m 76.492684,222.04964 c -0.08823,-0.13832 -0.216064,-1.60955 -0.284083,-3.2694 -0.107231,-2.61671 -0.293562,-3.85348 -1.401639,-9.30338 l -1.277967,-6.28549 0.623711,-0.65569 c 0.800167,-0.8412 1.871218,-2.5652 2.46974,-3.97539 0.57363,-1.35153 1.41498,-4.33928 1.416008,-5.02842 7.09e-4,-0.47595 0.02486,-0.46468 0.428121,0.19978 0.827608,1.36366 2.00418,2.58549 3.419523,3.55108 l 1.430261,0.97577 -0.110324,5.23104 c -0.06981,3.31027 -0.22908,5.96978 -0.433747,7.24296 -0.185753,1.15553 -0.375189,3.98168 -0.445034,6.63939 -0.07976,3.0349 -0.198334,4.67832 -0.344542,4.77526 -0.404569,0.26825 -5.312331,0.18108 -5.490028,-0.0975 z"
   id="path147" /><path
   style="fill:#666666;fill-opacity:1;stroke-width:2.01194"
   d="m 31.662595,222.14715 c -0.117323,-0.0862 -0.221625,-1.60685 -0.250207,-3.64783 -0.04769,-3.40557 -0.254982,-6.20481 -0.6571,-8.87338 -0.108384,-0.71927 -0.253621,-3.57119 -0.32275,-6.3376 l -0.125689,-5.02984 1.313323,-0.85531 c 1.423782,-0.92725 3.026518,-2.57474 3.530153,-3.62874 l 0.316029,-0.66138 0.546486,2.22265 c 0.650108,2.6441 1.830497,5.18429 3.153952,6.78731 0.861423,1.04338 0.948602,1.23899 0.833179,1.86949 -0.0709,0.3873 -0.649369,3.23921 -1.285483,6.33759 -0.947777,4.61643 -1.182557,6.16173 -1.300513,8.55987 -0.07917,1.60955 -0.211342,3.03551 -0.29372,3.1688 -0.166871,0.27 -5.101677,0.34991 -5.45766,0.0884 z"
   id="path148" /><path
   style="fill:#666666;fill-opacity:1;stroke-width:2.01194"
   d="m 39.673842,200.76291 c -1.469957,-2.14391 -2.51119,-5.03097 -3.004904,-8.33179 -0.330012,-2.20636 -0.255515,-3.08204 1.388995,-16.32708 l 0.652364,-5.2542 0.84477,1.73522 c 0.465288,0.95574 1.313608,2.26125 1.888455,2.90621 l 1.043684,1.17099 -0.442651,1.06797 c -0.401481,0.96865 -0.469367,1.70164 -0.729884,7.88082 -0.250681,5.94585 -0.82651,15.3019 -0.975878,15.85604 -0.02827,0.10487 -0.327497,-0.21201 -0.664951,-0.70418 z"
   id="path149" /><path
   style="fill:#666666;fill-opacity:1;stroke-width:2.01194"
   d="m 30.633722,193.93684 c 0.160607,-3.04223 0.951082,-10.30891 1.543398,-14.18814 0.397115,-2.60081 0.403579,-2.61886 1.149579,-3.20957 1.255963,-0.99452 2.460111,-2.30957 3.30157,-3.60564 0.757264,-1.16638 0.793969,-1.19474 0.683918,-0.52835 -0.06396,0.38729 -0.519246,4.09931 -1.011743,8.24893 -1.269246,10.69424 -1.243876,10.53116 -1.831615,11.77354 -0.587262,1.24137 -2.305903,3.20768 -3.320276,3.79875 l -0.655876,0.38217 z"
   id="path150" /><path
   style="fill:#666666;fill-opacity:1;stroke-width:2.01194"
   d="m 72.253075,230.90215 c -1.036047,-1.10995 -0.693636,-2.23047 1.094457,-3.58152 1.215383,-0.91833 1.911705,-1.77723 2.365888,-2.91827 l 0.324832,-0.81608 2.961361,0.003 c 1.628749,0.002 3.081278,-0.0386 3.227843,-0.0893 0.172127,-0.0595 0.408613,0.28183 0.667907,0.96405 0.256139,0.67392 0.732414,1.36569 1.315937,1.91134 2.766383,2.58685 2.678917,2.48193 2.678917,3.21363 0,0.46553 -0.165859,0.88024 -0.493377,1.23364 l -0.493377,0.53236 h -6.613922 c -6.599556,0 -6.61484,-9.9e-4 -7.036466,-0.45269 z"
   id="path151" /><path
   style="fill:#666666;fill-opacity:1;stroke-width:2.01194"
   d="m 27.152433,230.82738 c -0.246497,-0.31337 -0.419079,-0.82791 -0.419079,-1.24944 0,-0.63876 0.194562,-0.90372 1.78984,-2.43749 1.436655,-1.38126 1.862318,-1.9278 2.15714,-2.76972 0.340044,-0.97107 0.40505,-1.03826 0.875975,-0.90537 0.27977,0.0789 1.746626,0.13495 3.259679,0.12446 l 2.751006,-0.0191 0.341274,0.92443 c 0.252865,0.68496 0.812803,1.37344 2.161469,2.65765 2.008567,1.91259 2.227768,2.46423 1.412946,3.55582 l -0.40725,0.54558 -6.75196,0.053 -6.751961,0.053 z"
   id="path152" /></svg>
