<?xml version="1.0" encoding="UTF-8" standalone="no"?>
<!-- Created with Inkscape (http://www.inkscape.org/) -->

<svg
   width="688.64575mm"
   height="288.00894mm"
   viewBox="0 0 688.64575 288.00894"
   version="1.1"
   id="svg1"
   sodipodi:docname="PR-Logo-Light.svg"
   inkscape:version="1.3.2 (091e20e, 2023-11-25, custom)"
   xmlns:inkscape="http://www.inkscape.org/namespaces/inkscape"
   xmlns:sodipodi="http://sodipodi.sourceforge.net/DTD/sodipodi-0.dtd"
   xmlns="http://www.w3.org/2000/svg"
   xmlns:svg="http://www.w3.org/2000/svg">
  <sodipodi:namedview
     id="namedview1"
     pagecolor="#505050"
     bordercolor="#eeeeee"
     borderopacity="1"
     inkscape:showpageshadow="false"
     inkscape:pageopacity="0"
     inkscape:pagecheckerboard="true"
     inkscape:deskcolor="#505050"
     inkscape:document-units="mm"
     labelstyle="default"
     inkscape:zoom="0.6946484"
     inkscape:cx="1301.3778"
     inkscape:cy="544.87997"
     inkscape:window-width="2560"
     inkscape:window-height="1369"
     inkscape:window-x="-8"
     inkscape:window-y="-8"
     inkscape:window-maximized="1"
     inkscape:current-layer="text1" />
  <defs
     id="defs1" />
  <g
     inkscape:label="Layer 1"
     inkscape:groupmode="layer"
     id="layer1"
     transform="translate(-5.6507781,-35.995525)">
    <path
       d="m 64.685789,35.999461 c -32.704742,0 -59.0350109,26.327714 -59.0350109,59.032444 v 72.488615 c 0,1.51491 0.06276,3.01255 0.176236,4.49668 0.0201,0.26813 0.06178,0.53178 0.08531,0.79916 0.113993,1.2616 0.251054,2.51532 0.443862,3.75196 0.02513,0.14761 0.05418,0.29373 0.07783,0.44135 0.222936,1.36403 0.483024,2.7145 0.79659,4.04518 0.0098,0.0452 0.0201,0.0879 0.03015,0.13256 0.338915,1.42238 0.725891,2.82768 1.162423,4.20863 h 0.428308 c 2.1199979,6.23764 5.2200179,12.01069 9.1671429,17.10181 h -0.01005 c 0.07732,0.0994 0.158163,0.19381 0.23599,0.29323 0.004,0.004 0.005,0.01 0.01005,0.0151 0.34545,0.43985 0.695571,0.87553 1.053474,1.30513 0.0027,0.004 0.01005,0.01 0.01005,0.0151 0.140089,0.16771 0.284194,0.33189 0.425789,0.49809 0.005,0.005 0.01005,0.0151 0.01506,0.0201 0.361519,0.42377 0.727054,0.84279 1.100171,1.25583 l 0.005,0.005 c 0.04017,0.0452 0.07633,0.091 0.116996,0.13507 0.08436,0.0929 0.174232,0.18026 0.259591,0.27264 0.0039,0.005 0.01005,0.01 0.01506,0.0151 0.406206,0.44085 0.815525,0.87673 1.235088,1.30513 l 0.0027,0.002 c 0.106443,0.10847 0.217413,0.21389 0.324362,0.32185 l 0.0251,0.0251 c 0.437336,0.43883 0.875175,0.87492 1.325918,1.29996 0.005,0.005 0.01506,0.01 0.02008,0.0151 0.01506,0.01 0.0251,0.0251 0.03514,0.0352 0.06929,0.0647 0.140591,0.12754 0.210384,0.19181 0.01005,0.01 0.0251,0.0201 0.03515,0.0301 0.47148,0.43834 0.946474,0.87433 1.432265,1.29735 l 0.0027,0.002 c 0.01005,0.01 0.02008,0.0201 0.03013,0.0301 0.08536,0.0743 0.176241,0.1441 0.262101,0.21792 0.488552,0.41976 0.979464,0.83656 1.481621,1.24025 h 0.0027 c 0.136071,0.10995 0.275155,0.2134 0.412733,0.32185 0.02008,0.0151 0.04017,0.0302 0.05724,0.0452 0.457421,0.36001 0.914943,0.72234 1.382958,1.06899 0.621209,0.46094 1.251907,0.91002 1.891594,1.34666 0.121507,0.0829 0.246536,0.16218 0.368547,0.24402 1.660423,1.11528 3.373718,2.15902 5.15048,3.10328 2.01e-4,0.005 0,0.0151 0,0.0201 0.269632,10.20595 1.946072,20.33103 5.077875,30.05461 5.517068,17.77168 15.421461,33.22673 28.240896,45.47241 1.478358,1.41217 2.973537,2.80869 4.527814,4.1334 l 0.0027,0.002 c 0.326371,0.27817 0.661779,0.54604 0.991162,0.81989 0.501606,0.41675 0.998644,0.83757 1.507531,1.24548 0.339425,0.27364 0.682315,0.54287 1.024903,0.81216 0.215406,0.16871 0.434828,0.33339 0.651286,0.5006 0.346957,0.26863 0.693111,0.53781 1.04308,0.80182 0.04519,0.0301 0.08385,0.0663 0.127034,0.0984 0.678348,0.51004 1.365434,1.00637 2.05503,1.49975 0.0251,0.0151 0.05021,0.0352 0.07281,0.0517 0.336412,0.24 0.670365,0.48503 1.009389,0.72133 1.584956,1.10448 3.201846,2.16002 4.841733,3.17593 l 0.0027,0.002 c 0.303775,0.1883 0.607802,0.37558 0.913335,0.56046 1.895863,1.14837 3.826873,2.23584 5.788813,3.26416 1.78369,0.93482 3.58671,1.83405 5.420357,2.66735 0.004,9.9e-4 0.005,0.002 0.0101,0.005 2.31025,1.04966 4.66042,2.01627 7.04202,2.90087 0.24101,0.0894 0.47701,0.1878 0.71877,0.27515 1.63427,0.5937 3.28941,1.13598 4.95331,1.65024 0.64782,0.19933 1.30131,0.38361 1.9538,0.57085 2.35499,0.6792 4.7387,1.26742 7.1433,1.78519 1.22961,0.26261 2.45189,0.54559 3.69487,0.76541 1.15384,0.20638 2.32184,0.3555 3.48468,0.52416 1.44632,0.20687 2.89757,0.39666 4.35915,0.54489 1.00412,0.10394 2.00823,0.20486 3.01767,0.28018 2.48464,0.18126 4.98132,0.31883 7.50131,0.32686 2.51998,-0.01 5.01405,-0.1456 7.49874,-0.32686 1.00938,-0.0754 2.01606,-0.17675 3.02023,-0.28018 1.46159,-0.14813 2.91283,-0.33792 4.35916,-0.54489 1.16283,-0.16871 2.33083,-0.31783 3.48468,-0.52416 1.24298,-0.21992 2.46264,-0.5029 3.69231,-0.76541 2.40459,-0.51777 4.79087,-1.10599 7.14585,-1.78519 0.6525,-0.18729 1.30598,-0.37157 1.95381,-0.57085 1.66389,-0.51426 3.31642,-1.05654 4.95069,-1.65024 0.24201,-0.0874 0.48051,-0.18577 0.72133,-0.27515 2.36438,-0.87819 4.69612,-1.83927 6.9902,-2.88014 0.004,-9.9e-4 0.01,-0.002 0.0151,-0.005 0.0151,-0.005 0.0251,-0.01 0.0402,-0.0201 2.11986,-0.96323 4.20055,-2.00988 6.25327,-3.10845 h 0.002 c 0.38964,-0.20788 0.77555,-0.42579 1.16243,-0.63833 1.88506,-1.03523 3.73539,-2.12225 5.55272,-3.26672 0.1441,-0.0908 0.29223,-0.17825 0.43582,-0.27013 20.89505,-13.2974 37.11241,-33.69878 44.82635,-58.54717 1.56593,-4.86185 2.76797,-9.82486 3.61188,-14.847 0.79312,-4.72122 1.24004,-9.49943 1.4063,-14.29433 0.01,-0.31281 0.0503,-0.62357 0.0572,-0.93667 1.77681,-0.94427 3.49258,-1.98796 5.15315,-3.10329 0.12196,-0.0819 0.24452,-0.16119 0.36603,-0.24403 1.25819,-0.85885 2.48092,-1.76587 3.66635,-2.7167 0.0151,-0.0151 0.0352,-0.0251 0.0517,-0.0402 0.005,-0.005 0.01,-0.0151 0.0201,-0.0201 0.002,-0.002 0.01,-0.004 0.01,-0.005 1.17348,-0.94461 2.30991,-1.93573 3.40686,-2.96576 0.0251,-0.0251 0.0503,-0.0452 0.0728,-0.0678 1.07657,-1.01431 2.11312,-2.07069 3.11107,-3.16293 -0.0553,0.0608 -0.11302,0.12098 -0.16871,0.18177 0.0893,-0.097 0.18377,-0.1903 0.27264,-0.28821 0.0251,-0.0251 0.0452,-0.0537 0.0673,-0.0803 0.97153,-1.07255 1.90028,-2.18392 2.79192,-3.32641 -0.0452,0.0577 -0.0894,0.11595 -0.13507,0.17373 0.0814,-0.10345 0.16871,-0.20234 0.24904,-0.30627 h -0.01 c 3.94773,-5.09184 7.04444,-10.86569 9.16454,-17.10439 h 0.42278 c 0.43683,-1.38095 0.82381,-2.78625 1.16243,-4.20863 0.01,-0.0452 0.0251,-0.0879 0.0352,-0.13204 0.31382,-1.33069 0.57366,-2.68117 0.7966,-4.04519 0.0251,-0.14762 0.0553,-0.29323 0.0778,-0.44136 0.1923,-1.23664 0.32938,-2.49036 0.44386,-3.75195 0.0251,-0.26713 0.0628,-0.53078 0.0829,-0.79915 0.11399,-1.48415 0.17624,-2.98178 0.17624,-4.49669 V 95.027985 c 0,-32.704746 -26.33022,-59.03246 -59.03502,-59.03246 z M 85.856093,72.74326 H 202.37967 c 21.83957,0 39.42161,17.581985 39.42161,39.42154 v 48.40448 c 0,1.80849 -0.13307,3.58109 -0.37608,5.31919 -0.12704,0.91459 -0.36202,1.79242 -0.55011,2.68553 -0.15968,0.75386 -0.26361,1.52745 -0.46445,2.26516 -0.004,-0.01 -0.005,-0.0151 -0.01,-0.0251 -0.0402,0.14964 -0.0563,0.31031 -0.0984,0.45943 -0.38611,-0.79578 -0.74557,-1.60273 -1.15204,-2.38973 -18.3146,-35.63238 -54.96812,-58.09225 -95.03152,-58.22808 -40.0634,0.13607 -76.714362,22.59565 -95.028974,58.22808 -0.406707,0.78695 -0.765714,1.59395 -1.152037,2.38973 -0.04017,-0.14912 -0.05774,-0.30979 -0.09841,-0.45943 -0.004,0.01 -0.01005,0.0151 -0.01506,0.0251 -0.200844,-0.73771 -0.302269,-1.5113 -0.461939,-2.26516 -0.188291,-0.89311 -0.423278,-1.77094 -0.550111,-2.68553 -0.243522,-1.7381 -0.376079,-3.5107 -0.376079,-5.31919 V 112.1648 c 0,-2.72991 0.273147,-5.3949 0.796595,-7.96575 0.523398,-2.5709 1.296294,-5.048145 2.291121,-7.407945 5.968565,-14.15792 19.952741,-24.046791 36.331222,-24.047845 z m -3.777915,130.92431 50.072882,36.18073 -17.88797,24.75622 -0.20236,0.28018 -4.77947,-3.4536 C 89.476999,247.0719 78.646717,224.43005 81.821399,204.02296 Z m 126.713072,0 0.25959,0.35548 c 3.17463,20.4071 -7.65565,43.04894 -27.45991,57.40815 l -4.77947,3.45359 -0.20236,-0.28017 -17.88796,-24.75621 z"
       style="display:inline;fill:#fc732f;stroke-width:4.10466"
       id="path1" />
    <g
       id="text1"
       style="font-weight:bold;font-size:127.536px;font-family:Calibri;-inkscape-font-specification:'Calibri Bold';text-align:center;text-anchor:middle;fill:#ffffff;stroke-width:10.1099"
       aria-label="PEEK&#10;RESULT">
      <path
         style="text-align:start;text-anchor:start"
         d="m 374.95833,100.55122 q 0,6.7878 -2.1173,12.01877 -2.11729,5.23097 -6.16507,8.84283 -4.04777,3.54959 -9.96375,5.41779 -5.8537,1.8682 -13.8247,1.8682 h -6.72553 v 25.71893 q 0,0.62274 -0.43592,1.12093 -0.37364,0.49818 -1.30774,0.80955 -0.9341,0.31137 -2.49093,0.49819 -1.55684,0.18682 -3.98551,0.18682 -2.36639,0 -3.9855,-0.18682 -1.55683,-0.18682 -2.49093,-0.49819 -0.9341,-0.31137 -1.30774,-0.80955 -0.37365,-0.49819 -0.37365,-1.12093 V 81.931461 q 0,-2.926852 1.49457,-4.359141 1.55683,-1.494562 4.04777,-1.494562 h 18.9934 q 2.86458,0 5.41779,0.249094 2.61548,0.18682 6.22734,0.934101 3.61186,0.685008 7.28599,2.615485 3.73641,1.930476 6.3519,4.919601 2.61548,2.926852 3.9855,6.912352 1.37001,3.923227 1.37001,8.842829 z m -17.12519,1.18319 q 0,-4.234589 -1.49457,-6.974621 -1.49456,-2.740031 -3.67413,-4.047773 -2.17957,-1.307742 -4.60823,-1.619109 -2.36639,-0.373641 -4.91961,-0.373641 h -6.97462 v 27.338044 h 7.34826 q 3.92323,0 6.53872,-1.05865 2.67775,-1.05865 4.35914,-2.92685 1.68138,-1.93048 2.55321,-4.54597 0.87183,-2.67775 0.87183,-5.79143 z m 77.5927,48.51101 q 0,1.80593 -0.18682,3.0514 -0.12454,1.1832 -0.43591,1.93048 -0.31137,0.74728 -0.80956,1.12092 -0.43591,0.31137 -0.99637,0.31137 h -40.47774 q -2.05502,0 -3.48731,-1.1832 -1.37001,-1.24547 -1.37001,-3.9855 V 81.246453 q 0,-2.740031 1.37001,-3.923226 1.43229,-1.245469 3.48731,-1.245469 h 40.22865 q 0.56046,0 0.99637,0.311367 0.43592,0.311367 0.74728,1.120922 0.31137,0.747281 0.43592,1.99275 0.18682,1.183195 0.18682,3.051398 0,1.743657 -0.18682,2.989125 -0.12455,1.183196 -0.43592,1.930477 -0.31136,0.747281 -0.74728,1.120922 -0.43591,0.311367 -0.99637,0.311367 h -28.77033 v 19.678404 h 24.34891 q 0.56046,0 0.99638,0.37364 0.49818,0.31137 0.80955,1.05865 0.31137,0.68501 0.43592,1.93048 0.18682,1.18319 0.18682,2.92685 0,1.80593 -0.18682,2.98913 -0.12455,1.18319 -0.43592,1.93047 -0.31137,0.68501 -0.80955,0.99638 -0.43592,0.31136 -0.99638,0.31136 h -24.34891 v 22.72981 h 29.01942 q 0.56046,0 0.99637,0.37364 0.49819,0.31137 0.80956,1.05865 0.31137,0.74728 0.43591,1.99275 0.18682,1.18319 0.18682,2.98912 z m 62.21117,0 q 0,1.80593 -0.18682,3.0514 -0.12455,1.1832 -0.43591,1.93048 -0.31137,0.74728 -0.80956,1.12092 -0.43591,0.31137 -0.99637,0.31137 h -40.47774 q -2.05502,0 -3.48731,-1.1832 -1.37002,-1.24547 -1.37002,-3.9855 V 81.246453 q 0,-2.740031 1.37002,-3.923226 1.43229,-1.245469 3.48731,-1.245469 h 40.22864 q 0.56046,0 0.99638,0.311367 0.43591,0.311367 0.74728,1.120922 0.31137,0.747281 0.43591,1.99275 0.18682,1.183195 0.18682,3.051398 0,1.743657 -0.18682,2.989125 -0.12454,1.183196 -0.43591,1.930477 -0.31137,0.747281 -0.74728,1.120922 -0.43592,0.311367 -0.99638,0.311367 h -28.77033 v 19.678404 h 24.34892 q 0.56046,0 0.99637,0.37364 0.49819,0.31137 0.80956,1.05865 0.31137,0.68501 0.43591,1.93048 0.18682,1.18319 0.18682,2.92685 0,1.80593 -0.18682,2.98913 -0.12454,1.18319 -0.43591,1.93047 -0.31137,0.68501 -0.80956,0.99638 -0.43591,0.31136 -0.99637,0.31136 h -24.34892 v 22.72981 h 29.01943 q 0.56046,0 0.99637,0.37364 0.49819,0.31137 0.80956,1.05865 0.31136,0.74728 0.43591,1.99275 0.18682,1.18319 0.18682,2.98912 z m 73.29584,3.9855 q 0,0.68501 -0.37364,1.24547 -0.31137,0.49819 -1.30774,0.87183 -0.93411,0.31137 -2.61549,0.49819 -1.68138,0.18682 -4.23459,0.18682 -4.04778,0 -5.85371,-0.31137 -1.74365,-0.31137 -2.55321,-0.9341 -0.74728,-0.62273 -1.18319,-1.49456 l -24.34892,-38.23589 v 38.23589 q 0,0.68501 -0.37364,1.18319 -0.37364,0.49819 -1.30774,0.87183 -0.9341,0.31137 -2.49094,0.49819 -1.55683,0.18682 -3.9855,0.18682 -2.36639,0 -3.9855,-0.18682 -1.55683,-0.18682 -2.49093,-0.49819 -0.93411,-0.37364 -1.37002,-0.87183 -0.37364,-0.49818 -0.37364,-1.18319 V 78.381875 q 0,-0.685008 0.37364,-1.183195 0.43591,-0.498188 1.37002,-0.809555 0.9341,-0.311367 2.49093,-0.498188 1.61911,-0.18682 3.9855,-0.18682 2.42867,0 3.9855,0.18682 1.55684,0.186821 2.49094,0.498188 0.9341,0.311367 1.30774,0.809555 0.37364,0.498187 0.37364,1.183195 V 112.69454 L 552.064,78.444148 q 0.43591,-0.809554 1.05865,-1.307742 0.62273,-0.560461 1.6191,-0.871828 0.99638,-0.311367 2.55322,-0.435914 1.55683,-0.124547 3.9855,-0.124547 2.49093,0 4.11004,0.18682 1.61911,0.186821 2.55321,0.560461 0.99638,0.311368 1.37002,0.809555 0.37364,0.498188 0.37364,1.120922 0,1.058648 -0.56046,2.17957 -0.56046,1.120922 -2.1173,3.549586 l -22.10707,28.957149 24.09982,36.42996 q 1.37002,2.55321 1.61911,3.42504 0.31137,0.80956 0.31137,1.30774 z"
         id="path2" />
      <path
         style="text-align:start;text-anchor:start"
         d="m 379.56657,280.7499 q 0,0.68501 -0.2491,1.1832 -0.24909,0.43591 -1.18319,0.74728 -0.9341,0.31137 -2.74003,0.43591 -1.80593,0.12455 -4.91961,0.12455 -2.61548,0 -4.17232,-0.12455 -1.55683,-0.12454 -2.49093,-0.43591 -0.87183,-0.37364 -1.24547,-0.87183 -0.37364,-0.56046 -0.62274,-1.30774 l -7.22372,-17.99702 q -1.30774,-3.0514 -2.55321,-5.41779 -1.24547,-2.36639 -2.8023,-3.92323 -1.49456,-1.61911 -3.48731,-2.42866 -1.99275,-0.80956 -4.60824,-0.80956 h -5.10642 v 30.70081 q 0,0.62273 -0.43592,1.12092 -0.37364,0.49819 -1.30774,0.80955 -0.9341,0.31137 -2.49093,0.49819 -1.55684,0.18682 -3.98551,0.18682 -2.36639,0 -3.9855,-0.18682 -1.55683,-0.18682 -2.49093,-0.49819 -0.9341,-0.31136 -1.30774,-0.80955 -0.37365,-0.49819 -0.37365,-1.12092 v -73.17129 q 0,-2.74004 1.37002,-3.92323 1.43229,-1.24547 3.48731,-1.24547 h 20.8616 q 3.17595,0 5.23097,0.12455 2.05503,0.12454 3.73641,0.31136 4.85733,0.68501 8.71828,2.3664 3.92323,1.68138 6.60099,4.42141 2.74003,2.67776 4.17232,6.41416 1.43229,3.67414 1.43229,8.46919 0,4.04778 -1.05865,7.41054 -0.99638,3.30049 -2.98913,5.91598 -1.99275,2.61548 -4.9196,4.54596 -2.92685,1.93048 -6.66326,3.11367 1.80593,0.87183 3.36277,2.1173 1.61911,1.24547 2.98912,3.0514 1.43229,1.74365 2.67776,4.04777 1.24547,2.24184 2.42867,5.10642 l 6.7878,15.87973 q 0.9341,2.36639 1.24547,3.48731 0.31137,1.05865 0.31137,1.68138 z m -21.1107,-54.67608 q 0,-3.9855 -1.80593,-6.72553 -1.80593,-2.74003 -5.91598,-3.86095 -1.24547,-0.31137 -2.86457,-0.49819 -1.55684,-0.18682 -4.35915,-0.18682 h -7.34826 v 22.85435 h 8.34464 q 3.48731,0 6.1028,-0.80955 2.61548,-0.87183 4.35914,-2.36639 1.74365,-1.55684 2.61548,-3.67413 0.87183,-2.1173 0.87183,-4.73279 z m 80.8932,50.37922 q 0,1.80593 -0.18682,3.0514 -0.12455,1.18319 -0.43592,1.93047 -0.31136,0.74728 -0.80955,1.12092 -0.43591,0.31137 -0.99637,0.31137 h -40.47774 q -2.05502,0 -3.48731,-1.18319 -1.37002,-1.24547 -1.37002,-3.9855 v -70.24444 q 0,-2.74004 1.37002,-3.92323 1.43229,-1.24547 3.48731,-1.24547 h 40.22864 q 0.56046,0 0.99638,0.31137 0.43591,0.31137 0.74728,1.12092 0.31136,0.74728 0.43591,1.99275 0.18682,1.1832 0.18682,3.0514 0,1.74365 -0.18682,2.98912 -0.12455,1.1832 -0.43591,1.93048 -0.31137,0.74728 -0.74728,1.12092 -0.43592,0.31137 -0.99638,0.31137 h -28.77033 v 19.67841 h 24.34892 q 0.56046,0 0.99637,0.37364 0.49819,0.31136 0.80956,1.05865 0.31136,0.685 0.43591,1.93047 0.18682,1.1832 0.18682,2.92685 0,1.80593 -0.18682,2.98913 -0.12455,1.18319 -0.43591,1.93047 -0.31137,0.68501 -0.80956,0.99638 -0.43591,0.31137 -0.99637,0.31137 h -24.34892 v 22.7298 h 29.01943 q 0.56046,0 0.99637,0.37364 0.49819,0.31137 0.80955,1.05865 0.31137,0.74728 0.43592,1.99275 0.18682,1.1832 0.18682,2.98913 z m 60.96569,-17.74793 q 0,6.35189 -2.36639,11.14694 -2.36639,4.79506 -6.41416,8.03328 -4.04778,3.17594 -9.46557,4.79505 -5.41779,1.61911 -11.58286,1.61911 -4.17232,0 -7.78418,-0.68501 -3.54958,-0.68501 -6.28961,-1.61911 -2.74004,-0.99637 -4.60824,-2.05502 -1.80593,-1.05865 -2.61548,-1.8682 -0.80956,-0.80956 -1.1832,-2.30412 -0.31137,-1.55684 -0.31137,-4.42142 0,-1.93047 0.12455,-3.23821 0.12455,-1.30775 0.37364,-2.1173 0.31137,-0.80956 0.74728,-1.12092 0.49819,-0.37364 1.12092,-0.37364 0.87183,0 2.42867,1.05864 1.61911,0.99638 4.11005,2.24185 2.49093,1.24547 5.91597,2.30412 3.48732,0.99637 8.03328,0.99637 2.98912,0 5.35551,-0.68501 2.36639,-0.74728 3.9855,-2.05502 1.68138,-1.30774 2.55321,-3.23822 0.87183,-1.93048 0.87183,-4.29687 0,-2.74003 -1.49456,-4.6705 -1.49456,-1.99275 -3.92323,-3.48732 -2.36639,-1.55683 -5.41779,-2.86458 -3.0514,-1.37001 -6.28961,-2.86457 -3.23822,-1.49457 -6.28962,-3.36277 -3.0514,-1.93048 -5.48006,-4.54596 -2.3664,-2.67776 -3.86096,-6.28962 -1.49456,-3.61186 -1.49456,-8.65601 0,-5.79143 2.1173,-10.15057 2.17957,-4.42141 5.79143,-7.28599 3.67413,-2.92685 8.59373,-4.35914 4.98188,-1.43229 10.52421,-1.43229 2.86458,0 5.72916,0.43592 2.86458,0.43591 5.35551,1.18319 2.49094,0.74728 4.42142,1.68138 1.93048,0.93411 2.55321,1.55684 0.62273,0.62273 0.80955,1.05865 0.2491,0.43591 0.37364,1.18319 0.18683,0.68501 0.2491,1.80593 0.0623,1.05865 0.0623,2.67776 0,1.80593 -0.12454,3.0514 -0.0623,1.24547 -0.31137,2.05502 -0.18682,0.80956 -0.62274,1.1832 -0.37364,0.37364 -1.05864,0.37364 -0.68501,0 -2.17958,-0.87183 -1.49456,-0.87183 -3.67413,-1.8682 -2.17957,-1.05865 -5.04415,-1.86821 -2.86457,-0.87182 -6.28961,-0.87182 -2.67776,0 -4.67051,0.685 -1.99275,0.62274 -3.36277,1.80593 -1.30774,1.12093 -1.99275,2.74004 -0.62273,1.6191 -0.62273,3.42503 0,2.67776 1.43229,4.67051 1.49456,1.93048 3.92322,3.48732 2.49094,1.49456 5.60461,2.86457 3.11368,1.30775 6.35189,2.80231 3.23822,1.49456 6.35189,3.42504 3.11368,1.8682 5.54234,4.54596 2.42866,2.61548 3.92323,6.22734 1.49456,3.54959 1.49456,8.40692 z m 78.27772,-5.85371 q 0,7.41054 -2.17957,13.26425 -2.17957,5.8537 -6.41416,9.90147 -4.23459,4.04778 -10.46194,6.16507 -6.22734,2.1173 -14.32289,2.1173 -7.59736,0 -13.63788,-1.8682 -6.04053,-1.93048 -10.21285,-5.79143 -4.17232,-3.86096 -6.41416,-9.59011 -2.17957,-5.79143 -2.17957,-13.51334 v -49.0092 q 0,-0.62273 0.37364,-1.12092 0.37364,-0.49818 1.30774,-0.80955 0.99638,-0.31137 2.55321,-0.49819 1.55684,-0.18682 3.9855,-0.18682 2.36639,0 3.92323,0.18682 1.55684,0.18682 2.49094,0.49819 0.9341,0.31137 1.30774,0.80955 0.43591,0.49819 0.43591,1.12092 v 47.57691 q 0,4.79506 1.1832,8.34464 1.18319,3.48732 3.36276,5.79143 2.24185,2.30412 5.29325,3.48732 3.11367,1.12092 6.91235,1.12092 3.86095,0 6.91235,-1.1832 3.0514,-1.18319 5.1687,-3.42504 2.11729,-2.30411 3.23821,-5.60461 1.1832,-3.36276 1.1832,-7.59736 v -48.51101 q 0,-0.62273 0.37364,-1.12092 0.37364,-0.49818 1.30774,-0.80955 0.9341,-0.31137 2.49094,-0.49819 1.61911,-0.18682 3.9855,-0.18682 2.36639,0 3.86095,0.18682 1.55684,0.18682 2.49094,0.49819 0.9341,0.31137 1.30774,0.80955 0.37364,0.49819 0.37364,1.12092 z m 61.77525,23.16572 q 0,1.86821 -0.18682,3.17595 -0.12455,1.24547 -0.43591,2.11729 -0.31137,0.80956 -0.80956,1.1832 -0.43591,0.37364 -1.05865,0.37364 h -36.92815 q -2.05502,0 -3.48731,-1.18319 -1.37001,-1.24547 -1.37001,-3.9855 v -73.1713 q 0,-0.62273 0.37364,-1.12092 0.43591,-0.49818 1.37001,-0.80955 0.9341,-0.31137 2.49094,-0.49819 1.61911,-0.18682 3.9855,-0.18682 2.42866,0 3.9855,0.18682 1.55684,0.18682 2.49094,0.49819 0.9341,0.31137 1.30774,0.80955 0.43591,0.49819 0.43591,1.12092 v 64.82665 h 25.34529 q 0.62274,0 1.05865,0.37365 0.49819,0.31136 0.80956,1.12092 0.31136,0.74728 0.43591,2.05502 0.18682,1.24547 0.18682,3.11367 z m 53.92882,-67.00622 q 0,1.80593 -0.18682,3.11367 -0.12455,1.24547 -0.43592,2.05503 -0.31137,0.74728 -0.80955,1.12092 -0.43592,0.37364 -0.99638,0.37364 h -20.17659 v 64.9512 q 0,0.62273 -0.43592,1.12092 -0.37364,0.49819 -1.30774,0.80955 -0.9341,0.31137 -2.55321,0.49819 -1.55684,0.18682 -3.92323,0.18682 -2.36639,0 -3.9855,-0.18682 -1.55683,-0.18682 -2.49093,-0.49819 -0.93411,-0.31136 -1.37002,-0.80955 -0.37364,-0.49819 -0.37364,-1.12092 v -64.9512 h -20.1766 q -0.62273,0 -1.05864,-0.37364 -0.43592,-0.37364 -0.74728,-1.12092 -0.31137,-0.80956 -0.49819,-2.05503 -0.12455,-1.30774 -0.12455,-3.11367 0,-1.8682 0.12455,-3.17594 0.18682,-1.30775 0.49819,-2.05503 0.31136,-0.80955 0.74728,-1.12092 0.43591,-0.37364 1.05864,-0.37364 h 56.79338 q 0.56046,0 0.99638,0.37364 0.49818,0.31137 0.80955,1.12092 0.31137,0.74728 0.43592,2.05503 0.18682,1.30774 0.18682,3.17594 z"
         id="path3" />
    </g>
  </g>
</svg>
