<?xml version="1.0" encoding="UTF-8" standalone="no"?>
<!-- Created with Inkscape (http://www.inkscape.org/) -->

<svg
   width="276.93924mm"
   height="288.00894mm"
   viewBox="0 0 276.93924 288.00894"
   version="1.1"
   id="svg1"
   xmlns="http://www.w3.org/2000/svg"
   xmlns:svg="http://www.w3.org/2000/svg">
  <defs
     id="defs1" />
  <g
     id="layer1"
     transform="translate(-5.6507781,-35.995525)">
    <path
       d="m 64.685789,35.999461 c -32.704742,0 -59.0350109,26.327714 -59.0350109,59.032444 v 72.488615 c 0,1.51491 0.06276,3.01255 0.176236,4.49668 0.0201,0.26813 0.06178,0.53178 0.08531,0.79916 0.113993,1.2616 0.251054,2.51532 0.443862,3.75196 0.02513,0.14761 0.05418,0.29373 0.07783,0.44135 0.222936,1.36403 0.483024,2.7145 0.79659,4.04518 0.0098,0.0452 0.0201,0.0879 0.03015,0.13256 0.338915,1.42238 0.725891,2.82768 1.162423,4.20863 h 0.428308 c 2.1199979,6.23764 5.2200179,12.01069 9.1671429,17.10181 h -0.01005 c 0.07732,0.0994 0.158163,0.19381 0.23599,0.29323 0.004,0.004 0.005,0.01 0.01005,0.0151 0.34545,0.43985 0.695571,0.87553 1.053474,1.30513 0.0027,0.004 0.01005,0.01 0.01005,0.0151 0.140089,0.16771 0.284194,0.33189 0.425789,0.49809 0.005,0.005 0.01005,0.0151 0.01506,0.0201 0.361519,0.42377 0.727054,0.84279 1.100171,1.25583 l 0.005,0.005 c 0.04017,0.0452 0.07633,0.091 0.116996,0.13507 0.08436,0.0929 0.174232,0.18026 0.259591,0.27264 0.0039,0.005 0.01005,0.01 0.01506,0.0151 0.406206,0.44085 0.815525,0.87673 1.235088,1.30513 l 0.0027,0.002 c 0.106443,0.10847 0.217413,0.21389 0.324362,0.32185 l 0.0251,0.0251 c 0.437336,0.43883 0.875175,0.87492 1.325918,1.29996 0.005,0.005 0.01506,0.01 0.02008,0.0151 0.01506,0.01 0.0251,0.0251 0.03514,0.0352 0.06929,0.0647 0.140591,0.12754 0.210384,0.19181 0.01005,0.01 0.0251,0.0201 0.03515,0.0301 0.47148,0.43834 0.946474,0.87433 1.432265,1.29735 l 0.0027,0.002 c 0.01005,0.01 0.02008,0.0201 0.03013,0.0301 0.08536,0.0743 0.176241,0.1441 0.262101,0.21792 0.488552,0.41976 0.979464,0.83656 1.481621,1.24025 h 0.0027 c 0.136071,0.10995 0.275155,0.2134 0.412733,0.32185 0.02008,0.0151 0.04017,0.0302 0.05724,0.0452 0.457421,0.36001 0.914943,0.72234 1.382958,1.06899 0.621209,0.46094 1.251907,0.91002 1.891594,1.34666 0.121507,0.0829 0.246536,0.16218 0.368547,0.24402 1.660423,1.11528 3.373718,2.15902 5.15048,3.10328 2.01e-4,0.005 0,0.0151 0,0.0201 0.269632,10.20595 1.946072,20.33103 5.077875,30.05461 5.517068,17.77168 15.421461,33.22673 28.240896,45.47241 1.478358,1.41217 2.973537,2.80869 4.527814,4.1334 l 0.0027,0.002 c 0.326371,0.27817 0.661779,0.54604 0.991162,0.81989 0.501606,0.41675 0.998644,0.83757 1.507531,1.24548 0.339425,0.27364 0.682315,0.54287 1.024903,0.81216 0.215406,0.16871 0.434828,0.33339 0.651286,0.5006 0.346957,0.26863 0.693111,0.53781 1.04308,0.80182 0.04519,0.0301 0.08385,0.0663 0.127034,0.0984 0.678348,0.51004 1.365434,1.00637 2.05503,1.49975 0.0251,0.0151 0.05021,0.0352 0.07281,0.0517 0.336412,0.24 0.670365,0.48503 1.009389,0.72133 1.584956,1.10448 3.201846,2.16002 4.841733,3.17593 l 0.0027,0.002 c 0.303775,0.1883 0.607802,0.37558 0.913335,0.56046 1.895863,1.14837 3.826873,2.23584 5.788813,3.26416 1.78369,0.93482 3.58671,1.83405 5.420357,2.66735 0.004,9.9e-4 0.005,0.002 0.0101,0.005 2.31025,1.04966 4.66042,2.01627 7.04202,2.90087 0.24101,0.0894 0.47701,0.1878 0.71877,0.27515 1.63427,0.5937 3.28941,1.13598 4.95331,1.65024 0.64782,0.19933 1.30131,0.38361 1.9538,0.57085 2.35499,0.6792 4.7387,1.26742 7.1433,1.78519 1.22961,0.26261 2.45189,0.54559 3.69487,0.76541 1.15384,0.20638 2.32184,0.3555 3.48468,0.52416 1.44632,0.20687 2.89757,0.39666 4.35915,0.54489 1.00412,0.10394 2.00823,0.20486 3.01767,0.28018 2.48464,0.18126 4.98132,0.31883 7.50131,0.32686 2.51998,-0.01 5.01405,-0.1456 7.49874,-0.32686 1.00938,-0.0754 2.01606,-0.17675 3.02023,-0.28018 1.46159,-0.14813 2.91283,-0.33792 4.35916,-0.54489 1.16283,-0.16871 2.33083,-0.31783 3.48468,-0.52416 1.24298,-0.21992 2.46264,-0.5029 3.69231,-0.76541 2.40459,-0.51777 4.79087,-1.10599 7.14585,-1.78519 0.6525,-0.18729 1.30598,-0.37157 1.95381,-0.57085 1.66389,-0.51426 3.31642,-1.05654 4.95069,-1.65024 0.24201,-0.0874 0.48051,-0.18577 0.72133,-0.27515 2.36438,-0.87819 4.69612,-1.83927 6.9902,-2.88014 0.004,-9.9e-4 0.01,-0.002 0.0151,-0.005 0.0151,-0.005 0.0251,-0.01 0.0402,-0.0201 2.11986,-0.96323 4.20055,-2.00988 6.25327,-3.10845 h 0.002 c 0.38964,-0.20788 0.77555,-0.42579 1.16243,-0.63833 1.88506,-1.03523 3.73539,-2.12225 5.55272,-3.26672 0.1441,-0.0908 0.29223,-0.17825 0.43582,-0.27013 20.89505,-13.2974 37.11241,-33.69878 44.82635,-58.54717 1.56593,-4.86185 2.76797,-9.82486 3.61188,-14.847 0.79312,-4.72122 1.24004,-9.49943 1.4063,-14.29433 0.01,-0.31281 0.0503,-0.62357 0.0572,-0.93667 1.77681,-0.94427 3.49258,-1.98796 5.15315,-3.10329 0.12196,-0.0819 0.24452,-0.16119 0.36603,-0.24403 1.25819,-0.85885 2.48092,-1.76587 3.66635,-2.7167 0.0151,-0.0151 0.0352,-0.0251 0.0517,-0.0402 0.005,-0.005 0.01,-0.0151 0.0201,-0.0201 0.002,-0.002 0.01,-0.004 0.01,-0.005 1.17348,-0.94461 2.30991,-1.93573 3.40686,-2.96576 0.0251,-0.0251 0.0503,-0.0452 0.0728,-0.0678 1.07657,-1.01431 2.11312,-2.07069 3.11107,-3.16293 -0.0553,0.0608 -0.11302,0.12098 -0.16871,0.18177 0.0893,-0.097 0.18377,-0.1903 0.27264,-0.28821 0.0251,-0.0251 0.0452,-0.0537 0.0673,-0.0803 0.97153,-1.07255 1.90028,-2.18392 2.79192,-3.32641 -0.0452,0.0577 -0.0894,0.11595 -0.13507,0.17373 0.0814,-0.10345 0.16871,-0.20234 0.24904,-0.30627 h -0.01 c 3.94773,-5.09184 7.04444,-10.86569 9.16454,-17.10439 h 0.42278 c 0.43683,-1.38095 0.82381,-2.78625 1.16243,-4.20863 0.01,-0.0452 0.0251,-0.0879 0.0352,-0.13204 0.31382,-1.33069 0.57366,-2.68117 0.7966,-4.04519 0.0251,-0.14762 0.0553,-0.29323 0.0778,-0.44136 0.1923,-1.23664 0.32938,-2.49036 0.44386,-3.75195 0.0251,-0.26713 0.0628,-0.53078 0.0829,-0.79915 0.11399,-1.48415 0.17624,-2.98178 0.17624,-4.49669 V 95.027985 c 0,-32.704746 -26.33022,-59.03246 -59.03502,-59.03246 z M 85.856093,72.74326 H 202.37967 c 21.83957,0 39.42161,17.581985 39.42161,39.42154 v 48.40448 c 0,1.80849 -0.13307,3.58109 -0.37608,5.31919 -0.12704,0.91459 -0.36202,1.79242 -0.55011,2.68553 -0.15968,0.75386 -0.26361,1.52745 -0.46445,2.26516 -0.004,-0.01 -0.005,-0.0151 -0.01,-0.0251 -0.0402,0.14964 -0.0563,0.31031 -0.0984,0.45943 -0.38611,-0.79578 -0.74557,-1.60273 -1.15204,-2.38973 -18.3146,-35.63238 -54.96812,-58.09225 -95.03152,-58.22808 -40.0634,0.13607 -76.714362,22.59565 -95.028974,58.22808 -0.406707,0.78695 -0.765714,1.59395 -1.152037,2.38973 -0.04017,-0.14912 -0.05774,-0.30979 -0.09841,-0.45943 -0.004,0.01 -0.01005,0.0151 -0.01506,0.0251 -0.200844,-0.73771 -0.302269,-1.5113 -0.461939,-2.26516 -0.188291,-0.89311 -0.423278,-1.77094 -0.550111,-2.68553 -0.243522,-1.7381 -0.376079,-3.5107 -0.376079,-5.31919 V 112.1648 c 0,-2.72991 0.273147,-5.3949 0.796595,-7.96575 0.523398,-2.5709 1.296294,-5.048145 2.291121,-7.407945 5.968565,-14.15792 19.952741,-24.046791 36.331222,-24.047845 z m -3.777915,130.92431 50.072882,36.18073 -17.88797,24.75622 -0.20236,0.28018 -4.77947,-3.4536 C 89.476999,247.0719 78.646717,224.43005 81.821399,204.02296 Z m 126.713072,0 0.25959,0.35548 c 3.17463,20.4071 -7.65565,43.04894 -27.45991,57.40815 l -4.77947,3.45359 -0.20236,-0.28017 -17.88796,-24.75621 z"
       style="display:inline;fill:#fc732f;stroke-width:4.10466"
       id="path1" />
  </g>
</svg>
