<?xml version="1.0" encoding="UTF-8" standalone="no"?>
<svg
   id="Layer_1"
   data-name="Layer 1"
   viewBox="0 0 1124.14 1256.39"
   version="1.1"
   sodipodi:docname="Saudi_Riyal_Symbol-2.svg"
   xml:space="preserve"
   inkscape:version="1.3.2 (091e20e, 2023-11-25, custom)"
   xmlns:inkscape="http://www.inkscape.org/namespaces/inkscape"
   xmlns:sodipodi="http://sodipodi.sourceforge.net/DTD/sodipodi-0.dtd"
   xmlns="http://www.w3.org/2000/svg"
   xmlns:svg="http://www.w3.org/2000/svg"><sodipodi:namedview
     id="namedview2"
     pagecolor="#505050"
     bordercolor="#eeeeee"
     borderopacity="1"
     inkscape:showpageshadow="0"
     inkscape:pageopacity="0"
     inkscape:pagecheckerboard="0"
     inkscape:deskcolor="#505050"
     inkscape:zoom="0.46681364"
     inkscape:cx="-17.13746"
     inkscape:cy="570.89163"
     inkscape:window-width="2560"
     inkscape:window-height="1369"
     inkscape:window-x="-8"
     inkscape:window-y="-8"
     inkscape:window-maximized="1"
     inkscape:current-layer="Layer_1" /><defs
     id="defs1"><style
       id="style1">
      .cls-1 {
        fill: #231f20;
      }
    </style></defs><path
     class="cls-1"
     d="M699.62,1113.02h0c-20.06,44.48-33.32,92.75-38.4,143.37l424.51-90.24c20.06-44.47,33.31-92.75,38.4-143.37l-424.51,90.24Z"
     id="path1"
     style="fill:#dee2e6;fill-opacity:1" /><path
     class="cls-1"
     d="M1085.73,895.8c20.06-44.47,33.32-92.75,38.4-143.37l-330.68,70.33v-135.2l292.27-62.11c20.06-44.47,33.32-92.75,38.4-143.37l-330.68,70.27V66.13c-50.67,28.45-95.67,66.32-132.25,110.99v403.35l-132.25,28.11V0c-50.67,28.44-95.67,66.32-132.25,110.99v525.69l-295.91,62.88c-20.06,44.47-33.33,92.75-38.42,143.37l334.33-71.05v170.26l-358.3,76.14c-20.06,44.47-33.32,92.75-38.4,143.37l375.04-79.7c30.53-6.35,56.77-24.4,73.83-49.24l68.78-101.97v-.02c7.14-10.55,11.3-23.27,11.3-36.97v-149.98l132.25-28.11v270.4l424.53-90.28Z"
     id="path2"
     style="fill:#dee2e6;fill-opacity:1" /></svg>
